<?xml version="1.0" encoding="UTF-8" standalone="no"?>
<svg
   clip-rule="evenodd"
   fill-rule="evenodd"
   stroke-linejoin="round"
   stroke-miterlimit="2"
   viewBox="0 0 48 48"
   version="1.1"
   id="svg9"
   sodipodi:docname="cpu.svg"
   inkscape:version="1.4.3rc (9500139e98, 2025-12-13)"
   xmlns:inkscape="http://www.inkscape.org/namespaces/inkscape"
   xmlns:sodipodi="http://sodipodi.sourceforge.net/DTD/sodipodi-0.dtd"
   xmlns:xlink="http://www.w3.org/1999/xlink"
   xmlns="http://www.w3.org/2000/svg"
   xmlns:svg="http://www.w3.org/2000/svg">
  <defs
     id="defs9">
    <filter
       id="c-2"
       width="1.0239725"
       height="1.0239741"
       x="-0.011986232"
       y="-0.011987041"
       color-interpolation-filters="sRGB">
      <feGaussianBlur
         stdDeviation=".074"
         id="feGaussianBlur8" />
    </filter>
    <linearGradient
       xlink:href="#a-6"
       id="d-7"
       x1="2.598"
       x2="10.583"
       y1="2.836"
       y2="11.312"
       gradientUnits="userSpaceOnUse" />
    <linearGradient
       id="a-6">
      <stop
         offset="0"
         stop-color="#ffffff"
         id="stop1-2" />
      <stop
         offset="1"
         stop-color="#ffffff"
         stop-opacity="0"
         id="stop2-9" />
    </linearGradient>
    <linearGradient
       xlink:href="#a-6"
       id="e-6"
       x1="15.081"
       x2="12.7"
       y1="14.816"
       y2="12.171"
       gradientUnits="userSpaceOnUse" />
    <linearGradient
       id="a-0"
       x1="7.9369998"
       x2="7.9369998"
       y1="15.081"
       y2="1.852"
       gradientUnits="userSpaceOnUse"
       gradientTransform="matrix(3.1325527,0,0,3.1228172,-2.0063486,-2.7036797)">
      <stop
         stop-color="#ffffff"
         offset="0"
         id="stop62"
         style="stop-color:#666666;stop-opacity:1;" />
      <stop
         stop-color="#ffffff"
         offset="1"
         id="stop63" />
    </linearGradient>
  </defs>
  <sodipodi:namedview
     id="namedview9"
     pagecolor="#ffffff"
     bordercolor="#000000"
     borderopacity="0.25"
     inkscape:showpageshadow="2"
     inkscape:pageopacity="0.0"
     inkscape:pagecheckerboard="0"
     inkscape:deskcolor="#d1d1d1"
     inkscape:zoom="16.4375"
     inkscape:cx="23.969582"
     inkscape:cy="24.486692"
     inkscape:window-width="1920"
     inkscape:window-height="1015"
     inkscape:window-x="0"
     inkscape:window-y="0"
     inkscape:window-maximized="1"
     inkscape:current-layer="svg9" />
  <linearGradient
     id="a"
     x2="1"
     gradientTransform="matrix(0 -33.6872 33.6872 0 923.28 40.4502)"
     gradientUnits="userSpaceOnUse">
    <stop
       stop-color="#8a6b4f"
       offset="0"
       id="stop1" />
    <stop
       stop-color="#d4c3b5"
       offset="1"
       id="stop2" />
  </linearGradient>
  <linearGradient
     id="b">
    <stop
       stop-color="#f7f3f0"
       offset="0"
       id="stop3" />
    <stop
       stop-color="#ffffff"
       offset="1"
       id="stop4" />
  </linearGradient>
  <linearGradient
     id="c"
     x2="1"
     gradientTransform="matrix(0 -36 36 0 240 42)"
     gradientUnits="userSpaceOnUse"
     xlink:href="#b" />
  <linearGradient
     id="d"
     x2="1"
     gradientTransform="matrix(0 -40 40 0 184 44)"
     gradientUnits="userSpaceOnUse"
     xlink:href="#b" />
  <linearGradient
     id="e"
     x2="1"
     gradientTransform="matrix(0 -26 26 0 284 38)"
     gradientUnits="userSpaceOnUse">
    <stop
       stop-color="#483729"
       offset="0"
       id="stop5" />
    <stop
       stop-color="#8a6b4f"
       offset="1"
       id="stop6" />
  </linearGradient>
  <path
     d="M 39.44,45.668 H 8.56 c -3.438,0 -6.228,-2.79 -6.228,-6.228 V 8.56 c 0,-3.438 2.79,-6.228 6.228,-6.228 h 30.88 c 3.438,0 6.228,2.79 6.228,6.228 v 30.88 c 0,3.438 -2.79,6.228 -6.228,6.228 z"
     fill="url(#a)"
     id="path6"
     style="display:inline;opacity:0.299" />
  <path
     d="M 40.2,6 C 41.193,6 42,6.807 42,7.8 V 40.2 C 42,41.193 41.193,42 40.2,42 H 7.8 C 6.807,42 6,41.193 6,40.2 V 7.8 C 6,6.807 6.807,6 7.8,6 Z"
     fill="url(#c)"
     id="path7"
     style="display:inline" />
  <path
     d="M 4,37 4.051,35.013 6,35 V 33 H 4 V 31 H 6 V 29 H 4 V 27 H 6 V 25 H 4 V 23 H 6 V 21 H 4 V 19 H 6 V 17 H 4 L 4.011,15.038 6,15 V 13 H 4 L 4.003,11.062 6,11 V 9 H 4 V 7 H 6.187 C 6.362,6.649 6.649,6.362 7,6.188 V 4 h 2 v 2 h 2 V 4 h 2 v 2 h 2 V 4 h 2 v 2 h 2 V 4 h 2 v 2 h 2 V 4 h 2 v 2 h 2 V 4 h 2 v 2 h 2 V 4 h 2 v 2 h 2 V 4 h 2 v 2 h 2 V 4 h 2 V 6.188 C 41.351,6.362 41.638,6.649 41.813,7 H 44 v 2 h -2 v 2 h 2 v 2 h -2 v 2 h 2 v 2 h -2 v 2 h 2 v 2 h -2 v 2 h 2 v 2 h -2 v 2 h 2 v 2 h -2 v 2 h 2 v 2 h -2 v 2 h 2 v 2 h -2 v 2 h 2 v 2 H 41.813 C 41.638,41.351 41.351,41.638 41,41.812 V 44 h -2 v -2 h -2 v 2 h -2 v -2 h -2 v 2 h -2 v -2 h -2 v 2 h -2 v -2 h -2 v 2 h -2 v -2 h -2 v 2 h -2 v -2 h -2 v 2 h -2 v -2 h -2 v 2 H 11 V 42 H 9 v 2 H 7 V 41.812 C 6.649,41.638 6.362,41.351 6.187,41 H 4 L 4.022,39.011 6,39 v -2 z"
     fill="url(#d)"
     id="path8"
     style="display:inline" />
  <path
     d="m 38,12 c 0,-1.104 -0.896,-2 -2,-2 H 12 c -1.104,0 -2,0.896 -2,2 v 24 c 0,1.104 0.896,2 2,2 h 24 c 1.104,0 2,-0.896 2,-2 z"
     fill="url(#e)"
     id="path9"
     style="display:inline" />
  <rect
     x="1.3078926"
     y="0.57527816"
     width="46.415035"
     height="46.270782"
     rx="10.775982"
     ry="10.742493"
     fill="url(#a)"
     id="rect63"
     style="display:inline;opacity:0.510917;fill:url(#a-0);stroke-width:3.12767"
     inkscape:label="out2" />
  <g
     filter="url(#c)"
     opacity=".35"
     id="g12"
     style="display:inline;opacity:0.943228;filter:url(#c-2)"
     transform="matrix(3.1447913,0,0,3.1268845,-2.289587,-3.0038594)"
     inkscape:label="out">
    <path
       fill="url(#d)"
       d="m 5.36,1.058 c -1.53,0 -2.577,0.457 -3.26,1.2 -0.678,0.74 -1.042,1.8 -1.042,3.001 v 6.415 c 0,1.2 0.364,2.26 1.043,3 0.682,0.744 1.73,1.2 3.26,1.2 h 6.23 c 1.53,0 2.577,-0.456 3.26,-1.2 0.678,-0.739 1.024,-1.702 1.024,-3 V 5.5 c 0,-1.57 -0.346,-2.502 -1.024,-3.242 -0.683,-0.743 -1.73,-1.2 -3.26,-1.2 H 6.745 Z m 0,0.264 h 6.232 c 1.477,0 2.437,0.432 3.064,1.116 0.634,0.69 0.954,1.53 0.954,3.062 v 6.174 c 0,1.251 -0.322,2.134 -0.954,2.822 -0.627,0.684 -1.587,1.114 -3.064,1.114 H 5.359 C 3.882,15.61 2.922,15.18 2.295,14.496 1.67,13.814 1.322,12.821 1.322,11.674 V 5.26 C 1.322,4.112 1.67,3.12 2.295,2.438 2.922,1.754 3.882,1.322 5.359,1.322"
       id="path11"
       style="fill:url(#d-7)"
       inkscape:label="outtt" />
    <path
       fill="url(#e)"
       d="m 5.36,1.058 c -1.53,0 -2.577,0.457 -3.26,1.2 -0.678,0.74 -1.042,1.8 -1.042,3.001 v 6.415 c 0,1.2 0.364,2.26 1.043,3 0.682,0.744 1.73,1.2 3.26,1.2 h 6.23 c 1.53,0 2.577,-0.456 3.26,-1.2 0.678,-0.739 1.024,-1.702 1.024,-3 V 5.5 c 0,-1.57 -0.346,-2.502 -1.024,-3.242 -0.683,-0.743 -1.73,-1.2 -3.26,-1.2 H 6.745 Z m 0,0.264 h 6.232 c 1.477,0 2.437,0.432 3.064,1.116 0.634,0.69 0.954,1.53 0.954,3.062 v 6.174 c 0,1.251 -0.322,2.134 -0.954,2.822 -0.627,0.684 -1.587,1.114 -3.064,1.114 H 5.359 C 3.882,15.61 2.922,15.18 2.295,14.496 1.67,13.814 1.322,12.821 1.322,11.674 V 5.26 C 1.322,4.112 1.67,3.12 2.295,2.438 2.922,1.754 3.882,1.322 5.359,1.322"
       id="path12"
       style="fill:url(#e-6)"
       inkscape:label="outt" />
  </g>
</svg>
