<?xml version="1.0" encoding="UTF-8" standalone="no"?>
<svg
   width="64"
   height="64"
   viewBox="0 0 16.933 16.933"
   version="1.1"
   id="svg17"
   sodipodi:docname="org.kde.kblocks.svg"
   inkscape:version="1.4.3rc (9500139e98, 2025-12-13)"
   xmlns:inkscape="http://www.inkscape.org/namespaces/inkscape"
   xmlns:sodipodi="http://sodipodi.sourceforge.net/DTD/sodipodi-0.dtd"
   xmlns:xlink="http://www.w3.org/1999/xlink"
   xmlns="http://www.w3.org/2000/svg"
   xmlns:svg="http://www.w3.org/2000/svg">
  <sodipodi:namedview
     id="namedview17"
     pagecolor="#ffffff"
     bordercolor="#000000"
     borderopacity="0.25"
     inkscape:showpageshadow="2"
     inkscape:pageopacity="0.0"
     inkscape:pagecheckerboard="0"
     inkscape:deskcolor="#d1d1d1"
     inkscape:zoom="13.171875"
     inkscape:cx="31.96204"
     inkscape:cy="32"
     inkscape:window-width="1920"
     inkscape:window-height="1047"
     inkscape:window-x="0"
     inkscape:window-y="0"
     inkscape:window-maximized="1"
     inkscape:current-layer="svg17" />
  <defs
     id="defs6">
    <linearGradient
       id="b">
      <stop
         offset="0"
         stop-color="#ca9f89"
         id="stop1" />
      <stop
         offset="1"
         stop-color="#eee1da"
         id="stop2" />
    </linearGradient>
    <linearGradient
       id="a">
      <stop
         offset="0"
         stop-color="#ffffff"
         id="stop3" />
      <stop
         offset="1"
         stop-color="#ffffff"
         id="stop4" />
    </linearGradient>
    <linearGradient
       xlink:href="#a"
       id="h"
       x1="38.838"
       x2="38.875"
       y1="31.829"
       y2="15.598"
       gradientUnits="userSpaceOnUse" />
    <linearGradient
       xlink:href="#a"
       id="g"
       x1="16"
       x2="31.359"
       y1="39.04"
       y2="39.04"
       gradientUnits="userSpaceOnUse" />
    <linearGradient
       xlink:href="#b"
       id="f"
       x1="29.919"
       x2="29.975"
       y1="34.767"
       y2="25.339"
       gradientUnits="userSpaceOnUse" />
    <linearGradient
       xlink:href="#b"
       id="e"
       x1="17.443"
       x2="17.71"
       y1="22.502"
       y2="13.498"
       gradientUnits="userSpaceOnUse" />
    <linearGradient
       id="c"
       x1="7.031"
       x2="7.031"
       y1="14.699"
       y2="2.845"
       gradientTransform="translate(19.907 .792)"
       gradientUnits="userSpaceOnUse">
      <stop
         offset="0"
         stop-color="#a86b4b"
         id="stop5" />
      <stop
         offset="1"
         stop-color="#c29177"
         id="stop6" />
    </linearGradient>
    <filter
       id="d"
       width="1.12"
       height="1.12"
       x="-0.060000002"
       y="-0.060000002"
       color-interpolation-filters="sRGB">
      <feGaussianBlur
         stdDeviation=".6"
         id="feGaussianBlur6" />
    </filter>
    <filter
       id="c-0"
       width="1.0239725"
       height="1.0239741"
       x="-0.011986232"
       y="-0.011987041"
       color-interpolation-filters="sRGB">
      <feGaussianBlur
         stdDeviation=".074"
         id="feGaussianBlur8" />
    </filter>
    <linearGradient
       xlink:href="#a-6"
       id="d-9"
       x1="2.598"
       x2="10.583"
       y1="2.836"
       y2="11.312"
       gradientUnits="userSpaceOnUse" />
    <linearGradient
       id="a-6">
      <stop
         offset="0"
         stop-color="#ffffff"
         id="stop1-2" />
      <stop
         offset="1"
         stop-color="#ffffff"
         stop-opacity="0"
         id="stop2-9" />
    </linearGradient>
    <linearGradient
       xlink:href="#a-6"
       id="e-3"
       x1="15.081"
       x2="12.7"
       y1="14.816"
       y2="12.171"
       gradientUnits="userSpaceOnUse" />
    <linearGradient
       id="a-0"
       x1="7.9369998"
       x2="7.9369998"
       y1="15.081"
       y2="1.852"
       gradientUnits="userSpaceOnUse"
       gradientTransform="translate(3.122e-4,0.0083125)">
      <stop
         stop-color="#ffffff"
         offset="0"
         id="stop62"
         style="stop-color:#666666;stop-opacity:1;" />
      <stop
         stop-color="#ffffff"
         offset="1"
         id="stop63" />
    </linearGradient>
  </defs>
  <g
     color="#633f2c"
     id="g10">
    <path
       d="M4.37.53C2.254.53.53 2.312.53 4.496v8.468c0 2.184 1.725 3.968 3.84 3.968h8.194c2.114 0 3.84-1.783 3.84-3.968V4.497c0-2.184-1.726-3.968-3.84-3.968zm.256.52h7.681c1.844 0 3.33 1.534 3.33 3.44v7.937c0 1.906-1.485 3.44-3.33 3.44h-7.68c-1.845 0-3.33-1.534-3.33-3.44V4.49c0-1.906 1.485-3.44 3.33-3.44z"
       opacity=".01"
       style="font-feature-settings:normal;font-variant-alternates:normal;font-variant-caps:normal;font-variant-east-asian:normal;font-variant-ligatures:normal;font-variant-numeric:normal;font-variant-position:normal;font-variation-settings:normal;inline-size:0;isolation:auto;mix-blend-mode:normal;shape-margin:0;shape-padding:0;text-decoration-color:#633f2c;text-decoration-line:none;text-decoration-style:solid;text-indent:0;text-orientation:mixed;text-transform:none;white-space:normal"
       id="path6" />
    <path
       d="M4.359.794C2.392.794.795 2.447.795 4.48v8.5c0 2.035 1.597 3.688 3.564 3.688h8.216c1.967 0 3.564-1.653 3.564-3.688v-8.5c0-2.034-1.597-3.687-3.564-3.687zm.272.256h7.672c1.842 0 3.325 1.534 3.325 3.44v7.937c0 1.906-1.483 3.44-3.325 3.44H4.63c-1.842 0-3.325-1.534-3.325-3.44V4.49c0-1.906 1.483-3.44 3.325-3.44z"
       opacity=".01"
       style="font-feature-settings:normal;font-variant-alternates:normal;font-variant-caps:normal;font-variant-east-asian:normal;font-variant-ligatures:normal;font-variant-numeric:normal;font-variant-position:normal;font-variation-settings:normal;inline-size:0;isolation:auto;mix-blend-mode:normal;shape-margin:0;shape-padding:0;text-decoration-color:#633f2c;text-decoration-line:none;text-decoration-style:solid;text-indent:0;text-orientation:mixed;text-transform:none;white-space:normal"
       id="path7" />
    <path
       d="M4.31 1.058c-1.866 0-3.375 1.539-3.375 3.44v8.467c0 1.9 1.57 3.439 3.435 3.439h8.2c1.866 0 3.427-1.538 3.427-3.44V4.498c0-1.9-1.51-3.439-3.375-3.439h-.097c1.794.087 3.214 1.582 3.214 3.432v7.937c0 1.906-1.506 3.44-3.377 3.44h-7.79c-1.871 0-3.377-1.534-3.377-3.44V4.49c0-1.85 1.42-3.345 3.214-3.432z"
       opacity=".03"
       style="font-feature-settings:normal;font-variant-alternates:normal;font-variant-caps:normal;font-variant-east-asian:normal;font-variant-ligatures:normal;font-variant-numeric:normal;font-variant-position:normal;font-variation-settings:normal;inline-size:0;isolation:auto;mix-blend-mode:normal;shape-margin:0;shape-padding:0;text-decoration-color:#633f2c;text-decoration-line:none;text-decoration-style:solid;text-indent:0;text-orientation:mixed;text-transform:none;white-space:normal"
       id="path8" />
    <path
       d="M4 46.969V49c0 6.648 5.896 12 12.544 12h30.961C54.153 61 60 55.648 60 49v-1.992a12.97 12.97 0 0 1-13 12.963H17.002A12.973 12.973 0 0 1 4 46.969"
       opacity=".03"
       style="font-feature-settings:normal;font-variant-alternates:normal;font-variant-caps:normal;font-variant-east-asian:normal;font-variant-ligatures:normal;font-variant-numeric:normal;font-variant-position:normal;font-variation-settings:normal;inline-size:0;isolation:auto;mix-blend-mode:normal;shape-margin:0;shape-padding:0;text-decoration-color:#633f2c;text-decoration-line:none;text-decoration-style:solid;text-indent:0;text-orientation:mixed;text-transform:none;white-space:normal"
       transform="scale(.26458)"
       id="path9" />
    <path
       d="M1.058 11.906v.592c0 1.939 1.573 3.5 3.332 3.5h8.16c1.76 0 3.325-1.561 3.325-3.5v-.58c-.006 2.095-1.537 3.78-3.44 3.78H4.498c-1.905 0-3.44-1.692-3.44-3.792"
       opacity=".05"
       style="font-feature-settings:normal;font-variant-alternates:normal;font-variant-caps:normal;font-variant-east-asian:normal;font-variant-ligatures:normal;font-variant-numeric:normal;font-variant-position:normal;font-variation-settings:normal;inline-size:0;isolation:auto;mix-blend-mode:normal;shape-margin:0;shape-padding:0;text-decoration-color:#633f2c;text-decoration-line:none;text-decoration-style:solid;text-indent:0;text-orientation:mixed;text-transform:none;white-space:normal"
       id="path10" />
  </g>
  <rect
     width="14.816"
     height="14.816"
     x="1.058"
     y="1.058"
     fill="url(#c)"
     rx="3.44"
     ry="3.44"
     id="rect10"
     style="opacity:0.481" />
  <g
     filter="url(#d)"
     opacity=".25"
     transform="translate(.508 .508)scale(.33866)"
     id="g13">
    <path
       d="M15.332 14h5.336c.734 0 1.332.598 1.332 1.332v5.336c0 .734-.598 1.332-1.332 1.332h-5.336A1.334 1.334 0 0 1 14 20.668v-5.336c0-.734.598-1.332 1.332-1.332m12 12h5.336c.738 0 1.332.598 1.332 1.332v5.336c0 .738-.594 1.332-1.332 1.332h-5.336A1.33 1.33 0 0 1 26 32.668v-5.336c0-.734.598-1.332 1.332-1.332M14 24c-1.109 0-2 .891-2 2v8c0 1.109.891 2 2 2h8c1.109 0 2-.891 2-2v-8c0-1.109-.891-2-2-2m-8 1h8c.555 0 1 .445 1 1v8c0 .555-.445 1-1 1h-8c-.555 0-1-.445-1-1v-8c0-.555.445-1 1-1"
       id="path11" />
    <path
       d="M15 26h6c.551 0 1 .449 1 1v6c0 .551-.449 1-1 1h-6c-.551 0-1-.449-1-1v-6c0-.551.449-1 1-1m11-14c-1.109 0-2 .891-2 2v8c0 1.109.891 2 2 2h8c1.109 0 2-.891 2-2v-8c0-1.109-.891-2-2-2m-8 1h8c.555 0 1 .445 1 1v8c0 .555-.445 1-1 1h-8c-.555 0-1-.445-1-1v-8c0-.555.445-1 1-1"
       id="path12" />
    <path
       d="M27 14h6c.551 0 1 .449 1 1v6c0 .551-.449 1-1 1h-6c-.551 0-1-.449-1-1v-6c0-.551.449-1 1-1"
       id="path13" />
  </g>
  <path
     fill="url(#e)"
     d="M15.332 14h5.336c.734 0 1.332.598 1.332 1.332v5.336c0 .734-.598 1.332-1.332 1.332h-5.336A1.334 1.334 0 0 1 14 20.668v-5.336c0-.734.598-1.332 1.332-1.332"
     transform="translate(.17 .17)scale(.33866)"
     id="path14" />
  <path
     fill="url(#f)"
     d="M27.332 26h5.336c.738 0 1.332.598 1.332 1.332v5.336c0 .738-.594 1.332-1.332 1.332h-5.336A1.33 1.33 0 0 1 26 32.668v-5.336c0-.734.598-1.332 1.332-1.332"
     transform="translate(.17 .17)scale(.33866)"
     id="path15" />
  <path
     fill="url(#g)"
     d="M18.561 31.359a2.554 2.554 0 0 0-2.56 2.56v10.24c0 1.42 1.14 2.561 2.56 2.561h10.24a2.55 2.55 0 0 0 2.559-2.56V33.92c0-1.42-1.14-2.561-2.559-2.561zm0 1.281h10.24c.71 0 1.28.57 1.28 1.28v10.24c0 .71-.57 1.279-1.28 1.279h-10.24c-.71 0-1.281-.57-1.281-1.28V33.92c0-.71.57-1.279 1.281-1.279zm1.28 1.28a1.28 1.28 0 0 0-1.28 1.279v7.681c0 .706.574 1.28 1.28 1.28h7.679c.705 0 1.281-.574 1.281-1.28V35.2c0-.705-.576-1.28-1.281-1.28z"
     transform="rotate(.216)scale(.26458)"
     id="path16" />
  <path
     fill="url(#h)"
     d="M33.92 16a2.554 2.554 0 0 0-2.56 2.56V28.8a2.55 2.55 0 0 0 2.56 2.56h10.24c1.42 0 2.56-1.14 2.56-2.56V18.56c0-1.419-1.14-2.56-2.56-2.56zm0 1.28h10.24c.71 0 1.28.57 1.28 1.28V28.8c0 .71-.57 1.28-1.28 1.28H33.92c-.71 0-1.28-.57-1.28-1.28V18.56c0-.71.57-1.28 1.28-1.28m1.28 1.28a1.28 1.28 0 0 0-1.28 1.28v7.68c0 .705.574 1.28 1.28 1.28h7.68c.706 0 1.28-.575 1.28-1.28v-7.68a1.28 1.28 0 0 0-1.28-1.28z"
     transform="rotate(.216)scale(.26458)"
     id="path17" />
  <rect
     x="1.0583129"
     y="1.0583123"
     width="14.817"
     height="14.817"
     rx="3.4400001"
     ry="3.4400001"
     fill="url(#a)"
     id="rect63"
     style="display:inline;opacity:0.510917;fill:url(#a-0);stroke-width:0.999999"
     inkscape:label="out2" />
  <g
     filter="url(#c)"
     opacity=".35"
     id="g12"
     style="display:inline;opacity:0.943228;filter:url(#c-0)"
     transform="matrix(1.0039068,0,0,1.0013024,-0.0901055,-0.0878121)"
     inkscape:label="out">
    <path
       fill="url(#d)"
       d="m 5.36,1.058 c -1.53,0 -2.577,0.457 -3.26,1.2 -0.678,0.74 -1.042,1.8 -1.042,3.001 v 6.415 c 0,1.2 0.364,2.26 1.043,3 0.682,0.744 1.73,1.2 3.26,1.2 h 6.23 c 1.53,0 2.577,-0.456 3.26,-1.2 0.678,-0.739 1.024,-1.702 1.024,-3 V 5.5 c 0,-1.57 -0.346,-2.502 -1.024,-3.242 -0.683,-0.743 -1.73,-1.2 -3.26,-1.2 H 6.745 Z m 0,0.264 h 6.232 c 1.477,0 2.437,0.432 3.064,1.116 0.634,0.69 0.954,1.53 0.954,3.062 v 6.174 c 0,1.251 -0.322,2.134 -0.954,2.822 -0.627,0.684 -1.587,1.114 -3.064,1.114 H 5.359 C 3.882,15.61 2.922,15.18 2.295,14.496 1.67,13.814 1.322,12.821 1.322,11.674 V 5.26 C 1.322,4.112 1.67,3.12 2.295,2.438 2.922,1.754 3.882,1.322 5.359,1.322"
       id="path11-6"
       style="fill:url(#d-9)"
       inkscape:label="outtt" />
    <path
       fill="url(#e)"
       d="m 5.36,1.058 c -1.53,0 -2.577,0.457 -3.26,1.2 -0.678,0.74 -1.042,1.8 -1.042,3.001 v 6.415 c 0,1.2 0.364,2.26 1.043,3 0.682,0.744 1.73,1.2 3.26,1.2 h 6.23 c 1.53,0 2.577,-0.456 3.26,-1.2 0.678,-0.739 1.024,-1.702 1.024,-3 V 5.5 c 0,-1.57 -0.346,-2.502 -1.024,-3.242 -0.683,-0.743 -1.73,-1.2 -3.26,-1.2 H 6.745 Z m 0,0.264 h 6.232 c 1.477,0 2.437,0.432 3.064,1.116 0.634,0.69 0.954,1.53 0.954,3.062 v 6.174 c 0,1.251 -0.322,2.134 -0.954,2.822 -0.627,0.684 -1.587,1.114 -3.064,1.114 H 5.359 C 3.882,15.61 2.922,15.18 2.295,14.496 1.67,13.814 1.322,12.821 1.322,11.674 V 5.26 C 1.322,4.112 1.67,3.12 2.295,2.438 2.922,1.754 3.882,1.322 5.359,1.322"
       id="path12-6"
       style="fill:url(#e-3)"
       inkscape:label="outt" />
  </g>
</svg>
